<svg width="1000" heigth="1000" xmlns="http://www.w3.org/2000/svg">
<rect width="90" height="432" x="0" y="0" fill="blue" />
<text x="0" y="100" font-family="Comic Sans MS" font-size="12" fill="black" >Canada = 54 </text>,<rect width="90" height="48" x="100" y="0" fill="blue" />
<text x="100" y="100" font-family="Comic Sans MS" font-size="12" fill="black" >Norway = 6 </text>,<rect width="90" height="168" x="200" y="0" fill="blue" />
<text x="200" y="100" font-family="Comic Sans MS" font-size="12" fill="black" >USA = 21 </text>,<rect width="90" height="32" x="300" y="0" fill="blue" />
<text x="300" y="100" font-family="Comic Sans MS" font-size="12" fill="black" >Austria = 4 </text>,<rect width="90" height="56" x="400" y="0" fill="blue" />
<text x="400" y="100" font-family="Comic Sans MS" font-size="12" fill="black" >Germany = 7 </text>,<rect width="90" height="48" x="500" y="0" fill="blue" />
<text x="500" y="100" font-family="Comic Sans MS" font-size="12" fill="black" >Netherlands = 6 </text>,<rect width="90" height="40" x="600" y="0" fill="blue" />
<text x="600" y="100" font-family="Comic Sans MS" font-size="12" fill="black" >Australia = 5 </text>,<rect width="90" height="24" x="700" y="0" fill="blue" />
<text x="700" y="100" font-family="Comic Sans MS" font-size="12" fill="black" >Liechtenstein = 3 </text>,<rect width="90" height="8" x="800" y="0" fill="blue" />
<text x="800" y="100" font-family="Comic Sans MS" font-size="12" fill="black" >Korea = 1 </text>,<rect width="90" height="8" x="900" y="0" fill="blue" />
<text x="900" y="100" font-family="Comic Sans MS" font-size="12" fill="black" >Czech Rep = 1 </text>,<rect width="90" height="8" x="1000" y="0" fill="blue" />
<text x="1000" y="100" font-family="Comic Sans MS" font-size="12" fill="black" >Spain = 1 </text>,<rect width="90" height="16" x="1100" y="0" fill="blue" />
<text x="1100" y="100" font-family="Comic Sans MS" font-size="12" fill="black" >Sweden = 2 </text>,<rect width="90" height="56" x="1200" y="0" fill="blue" />
<text x="1200" y="100" font-family="Comic Sans MS" font-size="12" fill="black" >Switzerland = 7 </text>,<rect width="90" height="8" x="1300" y="0" fill="blue" />
<text x="1300" y="100" font-family="Comic Sans MS" font-size="12" fill="black" >Italy = 1 </text>,<rect width="90" height="40" x="1400" y="0" fill="blue" />
<text x="1400" y="100" font-family="Comic Sans MS" font-size="12" fill="black" >New Zealand = 5 </text>,<rect width="90" height="120" x="1500" y="0" fill="blue" />
<text x="1500" y="100" font-family="Comic Sans MS" font-size="12" fill="black" >Luxembourg = 15 </text>,<rect width="90" height="32" x="1600" y="0" fill="blue" />
<text x="1600" y="100" font-family="Comic Sans MS" font-size="12" fill="black" >Iceland = 4 </text>,<rect width="90" height="16" x="1700" y="0" fill="blue" />
<text x="1700" y="100" font-family="Comic Sans MS" font-size="12" fill="black" >Malta = 2 </text>,<rect width="90" height="8" x="1800" y="0" fill="blue" />
<text x="1800" y="100" font-family="Comic Sans MS" font-size="12" fill="black" >Belgium = 1 </text>,<rect width="90" height="8" x="1900" y="0" fill="blue" />
<text x="1900" y="100" font-family="Comic Sans MS" font-size="12" fill="black" >Finland = 1 </text>
</svg>