
  <svg xmlns="http://www.w3.org/2000/svg" viewBox="0 0 500 500">
    <rect
    y="0"
    height="17.5"
  width="500" 
      fill="steelblue"/>
<rect
    y="25"
    height="17.5"
  width="194.44444444444446" 
      fill="steelblue"/>
<rect
    y="50"
    height="17.5"
  width="138.88888888888889" 
      fill="steelblue"/>
<rect
    y="75"
    height="17.5"
  width="64.81481481481481" 
      fill="steelblue"/>
<rect
    y="100"
    height="17.5"
  width="64.81481481481481" 
      fill="steelblue"/>
<rect
    y="125"
    height="17.5"
  width="55.55555555555555" 
      fill="steelblue"/>
<rect
    y="150"
    height="17.5"
  width="55.55555555555555" 
      fill="steelblue"/>
<rect
    y="175"
    height="17.5"
  width="46.29629629629629" 
      fill="steelblue"/>
<rect
    y="200"
    height="17.5"
  width="46.29629629629629" 
      fill="steelblue"/>
<rect
    y="225"
    height="17.5"
  width="37.03703703703704" 
      fill="steelblue"/>
<rect
    y="250"
    height="17.5"
  width="37.03703703703704" 
      fill="steelblue"/>
<rect
    y="275"
    height="17.5"
  width="27.777777777777775" 
      fill="steelblue"/>
<rect
    y="300"
    height="17.5"
  width="18.51851851851852" 
      fill="steelblue"/>
<rect
    y="325"
    height="17.5"
  width="18.51851851851852" 
      fill="steelblue"/>
<rect
    y="350"
    height="17.5"
  width="9.25925925925926" 
      fill="steelblue"/>
<rect
    y="375"
    height="17.5"
  width="9.25925925925926" 
      fill="steelblue"/>
<rect
    y="400"
    height="17.5"
  width="9.25925925925926" 
      fill="steelblue"/>
<rect
    y="425"
    height="17.5"
  width="9.25925925925926" 
      fill="steelblue"/>
<rect
    y="450"
    height="17.5"
  width="9.25925925925926" 
      fill="steelblue"/>
<rect
    y="475"
    height="17.5"
  width="9.25925925925926" 
      fill="steelblue"/>
   <text
    x="490"
    y="12.25"
    fill="black"
    text-anchor="end">
    54
    </text>
<text
    x="184.44444444444446"
    y="37.25"
    fill="black"
    text-anchor="end">
    21
    </text>
<text
    x="128.88888888888889"
    y="62.25"
    fill="black"
    text-anchor="end">
    15
    </text>
<text
    x="54.81481481481481"
    y="87.25"
    fill="black"
    text-anchor="end">
    7
    </text>
<text
    x="54.81481481481481"
    y="112.25"
    fill="black"
    text-anchor="end">
    7
    </text>
<text
    x="45.55555555555555"
    y="137.25"
    fill="black"
    text-anchor="end">
    6
    </text>
<text
    x="45.55555555555555"
    y="162.25"
    fill="black"
    text-anchor="end">
    6
    </text>
<text
    x="36.29629629629629"
    y="187.25"
    fill="black"
    text-anchor="end">
    5
    </text>
<text
    x="36.29629629629629"
    y="212.25"
    fill="black"
    text-anchor="end">
    5
    </text>
<text
    x="27.037037037037038"
    y="237.25"
    fill="black"
    text-anchor="end">
    4
    </text>
<text
    x="27.037037037037038"
    y="262.25"
    fill="black"
    text-anchor="end">
    4
    </text>
<text
    x="17.777777777777775"
    y="287.25"
    fill="black"
    text-anchor="end">
    3
    </text>
<text
    x="8.518518518518519"
    y="312.25"
    fill="black"
    text-anchor="end">
    2
    </text>
<text
    x="8.518518518518519"
    y="337.25"
    fill="black"
    text-anchor="end">
    2
    </text>
<text
    x="-0.7407407407407405"
    y="362.25"
    fill="black"
    text-anchor="end">
    1
    </text>
<text
    x="-0.7407407407407405"
    y="387.25"
    fill="black"
    text-anchor="end">
    1
    </text>
<text
    x="-0.7407407407407405"
    y="412.25"
    fill="black"
    text-anchor="end">
    1
    </text>
<text
    x="-0.7407407407407405"
    y="437.25"
    fill="black"
    text-anchor="end">
    1
    </text>
<text
    x="-0.7407407407407405"
    y="462.25"
    fill="black"
    text-anchor="end">
    1
    </text>
<text
    x="-0.7407407407407405"
    y="487.25"
    fill="black"
    text-anchor="end">
    1
    </text>
      <text
    x="10"
    y="12.25"
    fill="black">
    CANADA
  </text>
<text
    x="10"
    y="37.25"
    fill="black">
    USA
  </text>
<text
    x="10"
    y="62.25"
    fill="black">
    LUXEMBOURG
  </text>
<text
    x="10"
    y="87.25"
    fill="black">
    GERMANY
  </text>
<text
    x="10"
    y="112.25"
    fill="black">
    SWITZERLAND
  </text>
<text
    x="10"
    y="137.25"
    fill="black">
    NORWAY
  </text>
<text
    x="10"
    y="162.25"
    fill="black">
    NETHERLANDS
  </text>
<text
    x="10"
    y="187.25"
    fill="black">
    AUSTRALIA
  </text>
<text
    x="10"
    y="212.25"
    fill="black">
    NEW ZEALAND
  </text>
<text
    x="10"
    y="237.25"
    fill="black">
    AUSTRIA
  </text>
<text
    x="10"
    y="262.25"
    fill="black">
    ICELAND
  </text>
<text
    x="10"
    y="287.25"
    fill="black">
    LIECHTENSTEIN
  </text>
<text
    x="10"
    y="312.25"
    fill="black">
    SWEDEN
  </text>
<text
    x="10"
    y="337.25"
    fill="black">
    MALTA
  </text>
<text
    x="10"
    y="362.25"
    fill="black">
    FINLAND
  </text>
<text
    x="10"
    y="387.25"
    fill="black">
    KOREA
  </text>
<text
    x="10"
    y="412.25"
    fill="black">
    CZECH REP
  </text>
<text
    x="10"
    y="437.25"
    fill="black">
    ITALY
  </text>
<text
    x="10"
    y="462.25"
    fill="black">
    BELGIUM
  </text>
<text
    x="10"
    y="487.25"
    fill="black">
    SPAIN
  </text>


  </svg>
